<svg width="32" height="32" viewBox="0 0 32 32" xmlns="http://www.w3.org/2000/svg">
  <!-- White background with rounded corners -->
  <rect width="32" height="32" rx="8" fill="white"/>
  
  <!-- Minimalist Purple Heart -->
  <path d="M16 24L8 16C5.33333 13.3333 5.33333 9 8 6.33333C10.6667 3.66667 15 3.66667 17.6667 6.33333L16 8L14.3333 6.33333C12 4 8 4 5.66667 6.33333C3.33333 8.66667 3.33333 12.6667 5.66667 15L16 24Z" fill="#9333EA"/>
  <path d="M16 24L24 16C26.6667 13.3333 26.6667 9 24 6.33333C21.3333 3.66667 17 3.66667 14.3333 6.33333L16 8L17.6667 6.33333C20 4 24 4 26.3333 6.33333C28.6667 8.66667 28.6667 12.6667 26.3333 15L16 24Z" fill="#9333EA"/>
</svg>