<svg width="32" height="32" viewBox="0 0 32 32" xmlns="http://www.w3.org/2000/svg">
  <!-- White background -->
  <rect width="32" height="32" rx="6" fill="white"/>
  
  <!-- Purple Heart Shape (using path instead of emoji) -->
  <path d="M16 26.5C15.7 26.5 15.4 26.4 15.2 26.2C14.9 26 10.4 22.4 7.8 18.8C6.3 16.7 5.5 14.5 5.5 12.5C5.5 8.4 8.7 5.1 12.5 5.1C14.1 5.1 15.7 5.8 16.9 6.9C18.1 5.7 19.7 5 21.4 5C25.2 5 28.4 8.3 28.4 12.4C28.4 14.4 27.6 16.6 26.1 18.7C23.5 22.3 19 25.9 18.7 26.1C18.5 26.3 18.2 26.4 17.9 26.4L16 26.5Z" fill="#9333EA"/>
</svg>