<svg width="32" height="32" viewBox="0 0 32 32" xmlns="http://www.w3.org/2000/svg">
  <!-- White background -->
  <rect width="32" height="32" rx="6" fill="white"/>
  
  <!-- Apple shape -->
  <path d="M22.5 12c-1.2-1.1-2.7-1.7-4.2-1.7-1.8 0-3.2 0.8-4.3 1.4-1.1-0.6-2.5-1.4-4.3-1.4-1.5 0-3 0.6-4.2 1.7-2.2 2.1-2.3 5.6-0.3 8.5 1.6 2.2 7.5 6.8 8 7.1 0.2 0.2 0.5 0.3 0.8 0.3s0.6-0.1 0.8-0.3c0.5-0.4 6.4-4.9 8-7.1 2-2.9 1.9-6.4-0.3-8.5z" fill="#9333EA"/>
  
  <!-- Leaf -->
  <path d="M21.7 8c-1 0-2.2 0.4-3.2 1.2 0.5-1.5 1.8-3.2 3.8-4C21.6 7.5 21.7 8 21.7 8z" fill="#9333EA"/>
</svg>